<?xml version="1.0" encoding="UTF-8" standalone="no"?>
<!DOCTYPE svg PUBLIC "-//W3C//DTD SVG 1.1//EN"
 "http://www.w3.org/Graphics/SVG/1.1/DTD/svg11.dtd">
<!-- Generated by graphviz version 14.1.5 (20260411.2331)
 -->
<!-- Title: UNet1D Pages: 1 -->
<svg width="2501pt" height="3660pt"
 viewBox="30.00 30.00 2471.00 3630.00" xmlns="http://www.w3.org/2000/svg" xmlns:xlink="http://www.w3.org/1999/xlink">
<g id="graph0" class="graph" transform="scale(3.18725 3.18725) rotate(0) translate(13.41 1134.91)">
<title>UNet1D</title>
<polygon fill="white" stroke="none" points="-4,4 -4,-1125.5 762,-1125.5 762,4 -4,4"/>
<!-- 0 -->
<g id="node1" class="node">
<title>0</title>
<polygon fill="lightyellow" stroke="black" points="200.62,-1048 90.62,-1048 90.62,-1015.5 200.62,-1015.5 200.62,-1048"/>
<polygon fill="none" stroke="black" points="90.62,-1015.5 90.62,-1048 151.62,-1048 151.62,-1015.5 90.62,-1015.5"/>
<text xml:space="preserve" text-anchor="start" x="95.62" y="-1034.75" font-family="Linux libertine" font-size="10.00">input&#45;tensor</text>
<text xml:space="preserve" text-anchor="start" x="105" y="-1023.5" font-family="Linux libertine" font-size="10.00">depth:0</text>
<polygon fill="none" stroke="black" points="151.62,-1015.5 151.62,-1048 200.62,-1048 200.62,-1015.5 151.62,-1015.5"/>
<text xml:space="preserve" text-anchor="start" x="156.62" y="-1029.12" font-family="Linux libertine" font-size="10.00">(1, 2, 96)</text>
</g>
<!-- 4 -->
<g id="node5" class="node">
<title>4</title>
<polygon fill="#c1ffc1" stroke="black" points="256,-974.5 69.25,-974.5 69.25,-932 256,-932 256,-974.5"/>
<polygon fill="none" stroke="black" points="69.25,-932 69.25,-974.5 122,-974.5 122,-932 69.25,-932"/>
<text xml:space="preserve" text-anchor="start" x="74.25" y="-956.25" font-family="Linux libertine" font-size="10.00">ResBlock</text>
<text xml:space="preserve" text-anchor="start" x="79.5" y="-945" font-family="Linux libertine" font-size="10.00">depth:1</text>
<polygon fill="none" stroke="black" points="122,-953.25 122,-974.5 165,-974.5 165,-953.25 122,-953.25"/>
<text xml:space="preserve" text-anchor="start" x="131.5" y="-961.25" font-family="Linux libertine" font-size="10.00">input:</text>
<polygon fill="none" stroke="black" points="165,-953.25 165,-974.5 256,-974.5 256,-953.25 165,-953.25"/>
<text xml:space="preserve" text-anchor="start" x="170" y="-961.25" font-family="Linux libertine" font-size="10.00">(1, 2, 96), (1, 192) </text>
<polygon fill="none" stroke="black" points="122,-932 122,-953.25 165,-953.25 165,-932 122,-932"/>
<text xml:space="preserve" text-anchor="start" x="127" y="-940" font-family="Linux libertine" font-size="10.00">output: </text>
<polygon fill="none" stroke="black" points="165,-932 165,-953.25 256,-953.25 256,-932 165,-932"/>
<text xml:space="preserve" text-anchor="start" x="186.88" y="-940" font-family="Linux libertine" font-size="10.00">(1, 64, 96) </text>
</g>
<!-- 0&#45;&gt;4 -->
<g id="edge1" class="edge">
<title>0&#45;&gt;4</title>
<path fill="none" stroke="black" d="M149.07,-1015.27C150.94,-1006.83 153.33,-996.07 155.58,-985.94"/>
<polygon fill="black" stroke="black" points="158.95,-986.93 157.7,-976.41 152.12,-985.41 158.95,-986.93"/>
</g>
<!-- 1 -->
<g id="node2" class="node">
<title>1</title>
<polygon fill="lightyellow" stroke="black" points="293,-1121.5 194.25,-1121.5 194.25,-1089 293,-1089 293,-1121.5"/>
<polygon fill="none" stroke="black" points="194.25,-1089 194.25,-1121.5 255.25,-1121.5 255.25,-1089 194.25,-1089"/>
<text xml:space="preserve" text-anchor="start" x="199.25" y="-1108.25" font-family="Linux libertine" font-size="10.00">input&#45;tensor</text>
<text xml:space="preserve" text-anchor="start" x="208.62" y="-1097" font-family="Linux libertine" font-size="10.00">depth:0</text>
<polygon fill="none" stroke="black" points="255.25,-1089 255.25,-1121.5 293,-1121.5 293,-1089 255.25,-1089"/>
<text xml:space="preserve" text-anchor="start" x="260.25" y="-1102.62" font-family="Linux libertine" font-size="10.00">(1, 64)</text>
</g>
<!-- 3 -->
<g id="node4" class="node">
<title>3</title>
<polygon fill="aliceblue" stroke="black" points="388.12,-1053 223.12,-1053 223.12,-1010.5 388.12,-1010.5 388.12,-1053"/>
<polygon fill="none" stroke="black" points="223.12,-1010.5 223.12,-1053 265.38,-1053 265.38,-1010.5 223.12,-1010.5"/>
<text xml:space="preserve" text-anchor="start" x="237.5" y="-1034.75" font-family="Linux libertine" font-size="10.00">cat</text>
<text xml:space="preserve" text-anchor="start" x="228.12" y="-1023.5" font-family="Linux libertine" font-size="10.00">depth:1</text>
<polygon fill="none" stroke="black" points="265.38,-1031.75 265.38,-1053 308.38,-1053 308.38,-1031.75 265.38,-1031.75"/>
<text xml:space="preserve" text-anchor="start" x="274.88" y="-1039.75" font-family="Linux libertine" font-size="10.00">input:</text>
<polygon fill="none" stroke="black" points="308.38,-1031.75 308.38,-1053 388.12,-1053 388.12,-1031.75 308.38,-1031.75"/>
<text xml:space="preserve" text-anchor="start" x="313.38" y="-1039.75" font-family="Linux libertine" font-size="10.00">(1, 64), (1, 128) </text>
<polygon fill="none" stroke="black" points="265.38,-1010.5 265.38,-1031.75 308.38,-1031.75 308.38,-1010.5 265.38,-1010.5"/>
<text xml:space="preserve" text-anchor="start" x="270.38" y="-1018.5" font-family="Linux libertine" font-size="10.00">output: </text>
<polygon fill="none" stroke="black" points="308.38,-1010.5 308.38,-1031.75 388.12,-1031.75 388.12,-1010.5 308.38,-1010.5"/>
<text xml:space="preserve" text-anchor="start" x="330.25" y="-1018.5" font-family="Linux libertine" font-size="10.00">(1, 192) </text>
</g>
<!-- 1&#45;&gt;3 -->
<g id="edge2" class="edge">
<title>1&#45;&gt;3</title>
<path fill="none" stroke="black" d="M257.08,-1088.74C263.88,-1080.89 272.36,-1071.11 280.32,-1061.93"/>
<polygon fill="black" stroke="black" points="282.83,-1064.38 286.73,-1054.54 277.54,-1059.8 282.83,-1064.38"/>
</g>
<!-- 2 -->
<g id="node3" class="node">
<title>2</title>
<polygon fill="lightyellow" stroke="black" points="418.62,-1121.5 314.62,-1121.5 314.62,-1089 418.62,-1089 418.62,-1121.5"/>
<polygon fill="none" stroke="black" points="314.62,-1089 314.62,-1121.5 375.62,-1121.5 375.62,-1089 314.62,-1089"/>
<text xml:space="preserve" text-anchor="start" x="319.62" y="-1108.25" font-family="Linux libertine" font-size="10.00">input&#45;tensor</text>
<text xml:space="preserve" text-anchor="start" x="329" y="-1097" font-family="Linux libertine" font-size="10.00">depth:0</text>
<polygon fill="none" stroke="black" points="375.62,-1089 375.62,-1121.5 418.62,-1121.5 418.62,-1089 375.62,-1089"/>
<text xml:space="preserve" text-anchor="start" x="380.62" y="-1102.62" font-family="Linux libertine" font-size="10.00">(1, 128)</text>
</g>
<!-- 2&#45;&gt;3 -->
<g id="edge3" class="edge">
<title>2&#45;&gt;3</title>
<path fill="none" stroke="black" d="M353.39,-1088.74C346.7,-1080.89 338.35,-1071.11 330.52,-1061.93"/>
<polygon fill="black" stroke="black" points="333.37,-1059.88 324.22,-1054.54 328.05,-1064.42 333.37,-1059.88"/>
</g>
<!-- 3&#45;&gt;4 -->
<g id="edge4" class="edge">
<title>3&#45;&gt;4</title>
<path fill="none" stroke="black" d="M266.93,-1010.05C249.84,-1000.91 229.56,-990.06 211.44,-980.37"/>
<polygon fill="black" stroke="black" points="213.16,-977.31 202.69,-975.68 209.85,-983.49 213.16,-977.31"/>
</g>
<!-- 6 -->
<g id="node7" class="node">
<title>6</title>
<polygon fill="#c1ffc1" stroke="black" points="526.62,-817.5 334.62,-817.5 334.62,-775 526.62,-775 526.62,-817.5"/>
<polygon fill="none" stroke="black" points="334.62,-775 334.62,-817.5 387.38,-817.5 387.38,-775 334.62,-775"/>
<text xml:space="preserve" text-anchor="start" x="339.62" y="-799.25" font-family="Linux libertine" font-size="10.00">ResBlock</text>
<text xml:space="preserve" text-anchor="start" x="344.88" y="-788" font-family="Linux libertine" font-size="10.00">depth:1</text>
<polygon fill="none" stroke="black" points="387.38,-796.25 387.38,-817.5 430.38,-817.5 430.38,-796.25 387.38,-796.25"/>
<text xml:space="preserve" text-anchor="start" x="396.88" y="-804.25" font-family="Linux libertine" font-size="10.00">input:</text>
<polygon fill="none" stroke="black" points="430.38,-796.25 430.38,-817.5 526.62,-817.5 526.62,-796.25 430.38,-796.25"/>
<text xml:space="preserve" text-anchor="start" x="435.38" y="-804.25" font-family="Linux libertine" font-size="10.00">(1, 64, 48), (1, 192) </text>
<polygon fill="none" stroke="black" points="387.38,-775 387.38,-796.25 430.38,-796.25 430.38,-775 387.38,-775"/>
<text xml:space="preserve" text-anchor="start" x="392.38" y="-783" font-family="Linux libertine" font-size="10.00">output: </text>
<polygon fill="none" stroke="black" points="430.38,-775 430.38,-796.25 526.62,-796.25 526.62,-775 430.38,-775"/>
<text xml:space="preserve" text-anchor="start" x="452.25" y="-783" font-family="Linux libertine" font-size="10.00">(1, 128, 48) </text>
</g>
<!-- 3&#45;&gt;6 -->
<g id="edge5" class="edge">
<title>3&#45;&gt;6</title>
<path fill="none" stroke="black" d="M307.68,-1010.15C312.02,-975.2 324.67,-903.24 358.62,-853.5 366.03,-842.66 376.17,-832.95 386.5,-824.77"/>
<polygon fill="black" stroke="black" points="388.45,-827.69 394.36,-818.9 384.25,-822.08 388.45,-827.69"/>
</g>
<!-- 8 -->
<g id="node9" class="node">
<title>8</title>
<polygon fill="#c1ffc1" stroke="black" points="661.25,-660.5 464,-660.5 464,-618 661.25,-618 661.25,-660.5"/>
<polygon fill="none" stroke="black" points="464,-618 464,-660.5 516.75,-660.5 516.75,-618 464,-618"/>
<text xml:space="preserve" text-anchor="start" x="469" y="-642.25" font-family="Linux libertine" font-size="10.00">ResBlock</text>
<text xml:space="preserve" text-anchor="start" x="474.25" y="-631" font-family="Linux libertine" font-size="10.00">depth:1</text>
<polygon fill="none" stroke="black" points="516.75,-639.25 516.75,-660.5 559.75,-660.5 559.75,-639.25 516.75,-639.25"/>
<text xml:space="preserve" text-anchor="start" x="526.25" y="-647.25" font-family="Linux libertine" font-size="10.00">input:</text>
<polygon fill="none" stroke="black" points="559.75,-639.25 559.75,-660.5 661.25,-660.5 661.25,-639.25 559.75,-639.25"/>
<text xml:space="preserve" text-anchor="start" x="564.75" y="-647.25" font-family="Linux libertine" font-size="10.00">(1, 128, 24), (1, 192) </text>
<polygon fill="none" stroke="black" points="516.75,-618 516.75,-639.25 559.75,-639.25 559.75,-618 516.75,-618"/>
<text xml:space="preserve" text-anchor="start" x="521.75" y="-626" font-family="Linux libertine" font-size="10.00">output: </text>
<polygon fill="none" stroke="black" points="559.75,-618 559.75,-639.25 661.25,-639.25 661.25,-618 559.75,-618"/>
<text xml:space="preserve" text-anchor="start" x="584.25" y="-626" font-family="Linux libertine" font-size="10.00">(1, 128, 24) </text>
</g>
<!-- 3&#45;&gt;8 -->
<g id="edge6" class="edge">
<title>3&#45;&gt;8</title>
<path fill="none" stroke="black" d="M388.39,-1016.35C463.18,-998.02 561.62,-958.23 561.62,-875.75 561.62,-875.75 561.62,-875.75 561.62,-795.25 561.62,-752.73 562.01,-703.64 562.3,-672.3"/>
<polygon fill="black" stroke="black" points="565.8,-672.36 562.39,-662.32 558.8,-672.29 565.8,-672.36"/>
</g>
<!-- 11 -->
<g id="node12" class="node">
<title>11</title>
<polygon fill="#c1ffc1" stroke="black" points="391.25,-425 194,-425 194,-382.5 391.25,-382.5 391.25,-425"/>
<polygon fill="none" stroke="black" points="194,-382.5 194,-425 246.75,-425 246.75,-382.5 194,-382.5"/>
<text xml:space="preserve" text-anchor="start" x="199" y="-406.75" font-family="Linux libertine" font-size="10.00">ResBlock</text>
<text xml:space="preserve" text-anchor="start" x="204.25" y="-395.5" font-family="Linux libertine" font-size="10.00">depth:1</text>
<polygon fill="none" stroke="black" points="246.75,-403.75 246.75,-425 289.75,-425 289.75,-403.75 246.75,-403.75"/>
<text xml:space="preserve" text-anchor="start" x="256.25" y="-411.75" font-family="Linux libertine" font-size="10.00">input:</text>
<polygon fill="none" stroke="black" points="289.75,-403.75 289.75,-425 391.25,-425 391.25,-403.75 289.75,-403.75"/>
<text xml:space="preserve" text-anchor="start" x="294.75" y="-411.75" font-family="Linux libertine" font-size="10.00">(1, 256, 48), (1, 192) </text>
<polygon fill="none" stroke="black" points="246.75,-382.5 246.75,-403.75 289.75,-403.75 289.75,-382.5 246.75,-382.5"/>
<text xml:space="preserve" text-anchor="start" x="251.75" y="-390.5" font-family="Linux libertine" font-size="10.00">output: </text>
<polygon fill="none" stroke="black" points="289.75,-382.5 289.75,-403.75 391.25,-403.75 391.25,-382.5 289.75,-382.5"/>
<text xml:space="preserve" text-anchor="start" x="316.88" y="-390.5" font-family="Linux libertine" font-size="10.00">(1, 64, 48) </text>
</g>
<!-- 3&#45;&gt;11 -->
<g id="edge7" class="edge">
<title>3&#45;&gt;11</title>
<path fill="none" stroke="black" d="M302.15,-1010.26C297.45,-980.66 289.62,-924.17 289.62,-875.75 289.62,-875.75 289.62,-875.75 289.62,-559.75 289.62,-517.22 290.77,-468.13 291.64,-436.79"/>
<polygon fill="black" stroke="black" points="295.14,-436.92 291.93,-426.82 288.14,-436.71 295.14,-436.92"/>
</g>
<!-- 14 -->
<g id="node15" class="node">
<title>14</title>
<polygon fill="#c1ffc1" stroke="black" points="197.25,-189.5 0,-189.5 0,-147 197.25,-147 197.25,-189.5"/>
<polygon fill="none" stroke="black" points="0,-147 0,-189.5 52.75,-189.5 52.75,-147 0,-147"/>
<text xml:space="preserve" text-anchor="start" x="5" y="-171.25" font-family="Linux libertine" font-size="10.00">ResBlock</text>
<text xml:space="preserve" text-anchor="start" x="10.25" y="-160" font-family="Linux libertine" font-size="10.00">depth:1</text>
<polygon fill="none" stroke="black" points="52.75,-168.25 52.75,-189.5 95.75,-189.5 95.75,-168.25 52.75,-168.25"/>
<text xml:space="preserve" text-anchor="start" x="62.25" y="-176.25" font-family="Linux libertine" font-size="10.00">input:</text>
<polygon fill="none" stroke="black" points="95.75,-168.25 95.75,-189.5 197.25,-189.5 197.25,-168.25 95.75,-168.25"/>
<text xml:space="preserve" text-anchor="start" x="100.75" y="-176.25" font-family="Linux libertine" font-size="10.00">(1, 128, 96), (1, 192) </text>
<polygon fill="none" stroke="black" points="52.75,-147 52.75,-168.25 95.75,-168.25 95.75,-147 52.75,-147"/>
<text xml:space="preserve" text-anchor="start" x="57.75" y="-155" font-family="Linux libertine" font-size="10.00">output: </text>
<polygon fill="none" stroke="black" points="95.75,-147 95.75,-168.25 197.25,-168.25 197.25,-147 95.75,-147"/>
<text xml:space="preserve" text-anchor="start" x="122.88" y="-155" font-family="Linux libertine" font-size="10.00">(1, 64, 96) </text>
</g>
<!-- 3&#45;&gt;14 -->
<g id="edge8" class="edge">
<title>3&#45;&gt;14</title>
<path fill="none" stroke="black" d="M222.7,-1012.4C151.53,-996.57 60.14,-976.01 58.62,-974.5 26.68,-942.71 35.62,-920.81 35.62,-875.75 35.62,-875.75 35.62,-875.75 35.62,-324.25 35.62,-278.06 59.93,-229.44 78.35,-199.24"/>
<polygon fill="black" stroke="black" points="81.16,-201.34 83.52,-191.01 75.24,-197.62 81.16,-201.34"/>
</g>
<!-- 5 -->
<g id="node6" class="node">
<title>5</title>
<polygon fill="#c1ffc1" stroke="black" points="527.38,-896 369.88,-896 369.88,-853.5 527.38,-853.5 527.38,-896"/>
<polygon fill="none" stroke="black" points="369.88,-853.5 369.88,-896 427.12,-896 427.12,-853.5 369.88,-853.5"/>
<text xml:space="preserve" text-anchor="start" x="374.88" y="-877.75" font-family="Linux libertine" font-size="10.00">AvgPool1d</text>
<text xml:space="preserve" text-anchor="start" x="382.38" y="-866.5" font-family="Linux libertine" font-size="10.00">depth:1</text>
<polygon fill="none" stroke="black" points="427.12,-874.75 427.12,-896 470.12,-896 470.12,-874.75 427.12,-874.75"/>
<text xml:space="preserve" text-anchor="start" x="436.62" y="-882.75" font-family="Linux libertine" font-size="10.00">input:</text>
<polygon fill="none" stroke="black" points="470.12,-874.75 470.12,-896 527.38,-896 527.38,-874.75 470.12,-874.75"/>
<text xml:space="preserve" text-anchor="start" x="475.12" y="-882.75" font-family="Linux libertine" font-size="10.00">(1, 64, 96) </text>
<polygon fill="none" stroke="black" points="427.12,-853.5 427.12,-874.75 470.12,-874.75 470.12,-853.5 427.12,-853.5"/>
<text xml:space="preserve" text-anchor="start" x="432.12" y="-861.5" font-family="Linux libertine" font-size="10.00">output: </text>
<polygon fill="none" stroke="black" points="470.12,-853.5 470.12,-874.75 527.38,-874.75 527.38,-853.5 470.12,-853.5"/>
<text xml:space="preserve" text-anchor="start" x="475.12" y="-861.5" font-family="Linux libertine" font-size="10.00">(1, 64, 48) </text>
</g>
<!-- 4&#45;&gt;5 -->
<g id="edge9" class="edge">
<title>4&#45;&gt;5</title>
<path fill="none" stroke="black" d="M240.02,-931.55C277.22,-921.6 321.98,-909.63 360.48,-899.33"/>
<polygon fill="black" stroke="black" points="360.95,-902.82 369.71,-896.86 359.14,-896.06 360.95,-902.82"/>
</g>
<!-- 13 -->
<g id="node14" class="node">
<title>13</title>
<polygon fill="aliceblue" stroke="black" points="239.12,-268 80.12,-268 80.12,-225.5 239.12,-225.5 239.12,-268"/>
<polygon fill="none" stroke="black" points="80.12,-225.5 80.12,-268 122.38,-268 122.38,-225.5 80.12,-225.5"/>
<text xml:space="preserve" text-anchor="start" x="94.5" y="-249.75" font-family="Linux libertine" font-size="10.00">cat</text>
<text xml:space="preserve" text-anchor="start" x="85.12" y="-238.5" font-family="Linux libertine" font-size="10.00">depth:1</text>
<polygon fill="none" stroke="black" points="122.38,-246.75 122.38,-268 165.38,-268 165.38,-246.75 122.38,-246.75"/>
<text xml:space="preserve" text-anchor="start" x="131.88" y="-254.75" font-family="Linux libertine" font-size="10.00">input:</text>
<polygon fill="none" stroke="black" points="165.38,-246.75 165.38,-268 239.12,-268 239.12,-246.75 165.38,-246.75"/>
<text xml:space="preserve" text-anchor="start" x="170.38" y="-254.75" font-family="Linux libertine" font-size="10.00">2 x (1, 64, 96) </text>
<polygon fill="none" stroke="black" points="122.38,-225.5 122.38,-246.75 165.38,-246.75 165.38,-225.5 122.38,-225.5"/>
<text xml:space="preserve" text-anchor="start" x="127.38" y="-233.5" font-family="Linux libertine" font-size="10.00">output: </text>
<polygon fill="none" stroke="black" points="165.38,-225.5 165.38,-246.75 239.12,-246.75 239.12,-225.5 165.38,-225.5"/>
<text xml:space="preserve" text-anchor="start" x="176" y="-233.5" font-family="Linux libertine" font-size="10.00">(1, 128, 96) </text>
</g>
<!-- 4&#45;&gt;13 -->
<g id="edge10" class="edge">
<title>4&#45;&gt;13</title>
<path fill="none" stroke="black" d="M161.97,-931.69C161.09,-902.01 159.62,-845.43 159.62,-797.25 159.62,-797.25 159.62,-797.25 159.62,-402.75 159.62,-360.23 159.62,-311.14 159.62,-279.8"/>
<polygon fill="black" stroke="black" points="163.13,-279.82 159.63,-269.82 156.13,-279.82 163.13,-279.82"/>
</g>
<!-- 5&#45;&gt;6 -->
<g id="edge11" class="edge">
<title>5&#45;&gt;6</title>
<path fill="none" stroke="black" d="M443.8,-853.25C442.05,-845.79 440.02,-837.17 438.09,-828.97"/>
<polygon fill="black" stroke="black" points="441.51,-828.21 435.81,-819.28 434.69,-829.82 441.51,-828.21"/>
</g>
<!-- 7 -->
<g id="node8" class="node">
<title>7</title>
<polygon fill="#c1ffc1" stroke="black" points="758,-739 595.25,-739 595.25,-696.5 758,-696.5 758,-739"/>
<polygon fill="none" stroke="black" points="595.25,-696.5 595.25,-739 652.5,-739 652.5,-696.5 595.25,-696.5"/>
<text xml:space="preserve" text-anchor="start" x="600.25" y="-720.75" font-family="Linux libertine" font-size="10.00">AvgPool1d</text>
<text xml:space="preserve" text-anchor="start" x="607.75" y="-709.5" font-family="Linux libertine" font-size="10.00">depth:1</text>
<polygon fill="none" stroke="black" points="652.5,-717.75 652.5,-739 695.5,-739 695.5,-717.75 652.5,-717.75"/>
<text xml:space="preserve" text-anchor="start" x="662" y="-725.75" font-family="Linux libertine" font-size="10.00">input:</text>
<polygon fill="none" stroke="black" points="695.5,-717.75 695.5,-739 758,-739 758,-717.75 695.5,-717.75"/>
<text xml:space="preserve" text-anchor="start" x="700.5" y="-725.75" font-family="Linux libertine" font-size="10.00">(1, 128, 48) </text>
<polygon fill="none" stroke="black" points="652.5,-696.5 652.5,-717.75 695.5,-717.75 695.5,-696.5 652.5,-696.5"/>
<text xml:space="preserve" text-anchor="start" x="657.5" y="-704.5" font-family="Linux libertine" font-size="10.00">output: </text>
<polygon fill="none" stroke="black" points="695.5,-696.5 695.5,-717.75 758,-717.75 758,-696.5 695.5,-696.5"/>
<text xml:space="preserve" text-anchor="start" x="700.5" y="-704.5" font-family="Linux libertine" font-size="10.00">(1, 128, 24) </text>
</g>
<!-- 6&#45;&gt;7 -->
<g id="edge12" class="edge">
<title>6&#45;&gt;7</title>
<path fill="none" stroke="black" d="M497.2,-774.55C528.65,-764.77 566.38,-753.03 599.11,-742.86"/>
<polygon fill="black" stroke="black" points="600.05,-746.23 608.56,-739.92 597.97,-739.55 600.05,-746.23"/>
</g>
<!-- 10 -->
<g id="node11" class="node">
<title>10</title>
<polygon fill="aliceblue" stroke="black" points="511.75,-503.5 347.5,-503.5 347.5,-461 511.75,-461 511.75,-503.5"/>
<polygon fill="none" stroke="black" points="347.5,-461 347.5,-503.5 389.75,-503.5 389.75,-461 347.5,-461"/>
<text xml:space="preserve" text-anchor="start" x="361.88" y="-485.25" font-family="Linux libertine" font-size="10.00">cat</text>
<text xml:space="preserve" text-anchor="start" x="352.5" y="-474" font-family="Linux libertine" font-size="10.00">depth:1</text>
<polygon fill="none" stroke="black" points="389.75,-482.25 389.75,-503.5 432.75,-503.5 432.75,-482.25 389.75,-482.25"/>
<text xml:space="preserve" text-anchor="start" x="399.25" y="-490.25" font-family="Linux libertine" font-size="10.00">input:</text>
<polygon fill="none" stroke="black" points="432.75,-482.25 432.75,-503.5 511.75,-503.5 511.75,-482.25 432.75,-482.25"/>
<text xml:space="preserve" text-anchor="start" x="437.75" y="-490.25" font-family="Linux libertine" font-size="10.00">2 x (1, 128, 48) </text>
<polygon fill="none" stroke="black" points="389.75,-461 389.75,-482.25 432.75,-482.25 432.75,-461 389.75,-461"/>
<text xml:space="preserve" text-anchor="start" x="394.75" y="-469" font-family="Linux libertine" font-size="10.00">output: </text>
<polygon fill="none" stroke="black" points="432.75,-461 432.75,-482.25 511.75,-482.25 511.75,-461 432.75,-461"/>
<text xml:space="preserve" text-anchor="start" x="446" y="-469" font-family="Linux libertine" font-size="10.00">(1, 256, 48) </text>
</g>
<!-- 6&#45;&gt;10 -->
<g id="edge13" class="edge">
<title>6&#45;&gt;10</title>
<path fill="none" stroke="black" d="M430.56,-774.78C430.39,-721.67 429.93,-579.16 429.73,-515.15"/>
<polygon fill="black" stroke="black" points="433.23,-515.3 429.7,-505.31 426.23,-515.32 433.23,-515.3"/>
</g>
<!-- 7&#45;&gt;8 -->
<g id="edge14" class="edge">
<title>7&#45;&gt;8</title>
<path fill="none" stroke="black" d="M645.77,-696.05C632.6,-687.2 617.03,-676.76 602.96,-667.32"/>
<polygon fill="black" stroke="black" points="605.01,-664.48 594.76,-661.81 601.11,-670.29 605.01,-664.48"/>
</g>
<!-- 9 -->
<g id="node10" class="node">
<title>9</title>
<polygon fill="#c1ffc1" stroke="black" points="632.5,-582 472.75,-582 472.75,-539.5 632.5,-539.5 632.5,-582"/>
<polygon fill="none" stroke="black" points="472.75,-539.5 472.75,-582 527,-582 527,-539.5 472.75,-539.5"/>
<text xml:space="preserve" text-anchor="start" x="477.75" y="-563.75" font-family="Linux libertine" font-size="10.00">Upsample</text>
<text xml:space="preserve" text-anchor="start" x="483.75" y="-552.5" font-family="Linux libertine" font-size="10.00">depth:1</text>
<polygon fill="none" stroke="black" points="527,-560.75 527,-582 570,-582 570,-560.75 527,-560.75"/>
<text xml:space="preserve" text-anchor="start" x="536.5" y="-568.75" font-family="Linux libertine" font-size="10.00">input:</text>
<polygon fill="none" stroke="black" points="570,-560.75 570,-582 632.5,-582 632.5,-560.75 570,-560.75"/>
<text xml:space="preserve" text-anchor="start" x="575" y="-568.75" font-family="Linux libertine" font-size="10.00">(1, 128, 24) </text>
<polygon fill="none" stroke="black" points="527,-539.5 527,-560.75 570,-560.75 570,-539.5 527,-539.5"/>
<text xml:space="preserve" text-anchor="start" x="532" y="-547.5" font-family="Linux libertine" font-size="10.00">output: </text>
<polygon fill="none" stroke="black" points="570,-539.5 570,-560.75 632.5,-560.75 632.5,-539.5 570,-539.5"/>
<text xml:space="preserve" text-anchor="start" x="575" y="-547.5" font-family="Linux libertine" font-size="10.00">(1, 128, 48) </text>
</g>
<!-- 8&#45;&gt;9 -->
<g id="edge15" class="edge">
<title>8&#45;&gt;9</title>
<path fill="none" stroke="black" d="M559.95,-617.75C558.97,-610.29 557.84,-601.67 556.77,-593.47"/>
<polygon fill="black" stroke="black" points="560.28,-593.27 555.51,-583.81 553.33,-594.18 560.28,-593.27"/>
</g>
<!-- 9&#45;&gt;10 -->
<g id="edge16" class="edge">
<title>9&#45;&gt;10</title>
<path fill="none" stroke="black" d="M519.34,-539.05C504.98,-530.12 488.01,-519.56 472.71,-510.04"/>
<polygon fill="black" stroke="black" points="474.56,-507.08 464.22,-504.77 470.87,-513.02 474.56,-507.08"/>
</g>
<!-- 10&#45;&gt;11 -->
<g id="edge17" class="edge">
<title>10&#45;&gt;11</title>
<path fill="none" stroke="black" d="M392.55,-460.55C376.25,-451.45 356.93,-440.66 339.64,-431"/>
<polygon fill="black" stroke="black" points="341.49,-428.03 331.05,-426.21 338.07,-434.14 341.49,-428.03"/>
</g>
<!-- 12 -->
<g id="node13" class="node">
<title>12</title>
<polygon fill="#c1ffc1" stroke="black" points="358.88,-346.5 204.38,-346.5 204.38,-304 358.88,-304 358.88,-346.5"/>
<polygon fill="none" stroke="black" points="204.38,-304 204.38,-346.5 258.62,-346.5 258.62,-304 204.38,-304"/>
<text xml:space="preserve" text-anchor="start" x="209.38" y="-328.25" font-family="Linux libertine" font-size="10.00">Upsample</text>
<text xml:space="preserve" text-anchor="start" x="215.38" y="-317" font-family="Linux libertine" font-size="10.00">depth:1</text>
<polygon fill="none" stroke="black" points="258.62,-325.25 258.62,-346.5 301.62,-346.5 301.62,-325.25 258.62,-325.25"/>
<text xml:space="preserve" text-anchor="start" x="268.12" y="-333.25" font-family="Linux libertine" font-size="10.00">input:</text>
<polygon fill="none" stroke="black" points="301.62,-325.25 301.62,-346.5 358.88,-346.5 358.88,-325.25 301.62,-325.25"/>
<text xml:space="preserve" text-anchor="start" x="306.62" y="-333.25" font-family="Linux libertine" font-size="10.00">(1, 64, 48) </text>
<polygon fill="none" stroke="black" points="258.62,-304 258.62,-325.25 301.62,-325.25 301.62,-304 258.62,-304"/>
<text xml:space="preserve" text-anchor="start" x="263.62" y="-312" font-family="Linux libertine" font-size="10.00">output: </text>
<polygon fill="none" stroke="black" points="301.62,-304 301.62,-325.25 358.88,-325.25 358.88,-304 301.62,-304"/>
<text xml:space="preserve" text-anchor="start" x="306.62" y="-312" font-family="Linux libertine" font-size="10.00">(1, 64, 96) </text>
</g>
<!-- 11&#45;&gt;12 -->
<g id="edge18" class="edge">
<title>11&#45;&gt;12</title>
<path fill="none" stroke="black" d="M289.68,-382.25C288.6,-374.79 287.37,-366.17 286.19,-357.97"/>
<polygon fill="black" stroke="black" points="289.68,-357.71 284.8,-348.31 282.76,-358.7 289.68,-357.71"/>
</g>
<!-- 12&#45;&gt;13 -->
<g id="edge19" class="edge">
<title>12&#45;&gt;13</title>
<path fill="none" stroke="black" d="M248.61,-303.55C234.37,-294.62 217.53,-284.06 202.36,-274.54"/>
<polygon fill="black" stroke="black" points="204.28,-271.62 193.95,-269.27 200.56,-277.55 204.28,-271.62"/>
</g>
<!-- 13&#45;&gt;14 -->
<g id="edge20" class="edge">
<title>13&#45;&gt;14</title>
<path fill="none" stroke="black" d="M143.28,-225.25C136.78,-217.1 129.19,-207.58 122.12,-198.72"/>
<polygon fill="black" stroke="black" points="124.93,-196.63 115.96,-190.99 119.46,-200.99 124.93,-196.63"/>
</g>
<!-- 15 -->
<g id="node16" class="node">
<title>15</title>
<polygon fill="#c1ffc1" stroke="black" points="170.62,-111 26.62,-111 26.62,-68.5 170.62,-68.5 170.62,-111"/>
<polygon fill="none" stroke="black" points="26.62,-68.5 26.62,-111 70.38,-111 70.38,-68.5 26.62,-68.5"/>
<text xml:space="preserve" text-anchor="start" x="31.62" y="-92.75" font-family="Linux libertine" font-size="10.00">Conv1d</text>
<text xml:space="preserve" text-anchor="start" x="32.38" y="-81.5" font-family="Linux libertine" font-size="10.00">depth:1</text>
<polygon fill="none" stroke="black" points="70.38,-89.75 70.38,-111 113.38,-111 113.38,-89.75 70.38,-89.75"/>
<text xml:space="preserve" text-anchor="start" x="79.88" y="-97.75" font-family="Linux libertine" font-size="10.00">input:</text>
<polygon fill="none" stroke="black" points="113.38,-89.75 113.38,-111 170.62,-111 170.62,-89.75 113.38,-89.75"/>
<text xml:space="preserve" text-anchor="start" x="118.38" y="-97.75" font-family="Linux libertine" font-size="10.00">(1, 64, 96) </text>
<polygon fill="none" stroke="black" points="70.38,-68.5 70.38,-89.75 113.38,-89.75 113.38,-68.5 70.38,-68.5"/>
<text xml:space="preserve" text-anchor="start" x="75.38" y="-76.5" font-family="Linux libertine" font-size="10.00">output: </text>
<polygon fill="none" stroke="black" points="113.38,-68.5 113.38,-89.75 170.62,-89.75 170.62,-68.5 113.38,-68.5"/>
<text xml:space="preserve" text-anchor="start" x="121" y="-76.5" font-family="Linux libertine" font-size="10.00">(1, 2, 96) </text>
</g>
<!-- 14&#45;&gt;15 -->
<g id="edge21" class="edge">
<title>14&#45;&gt;15</title>
<path fill="none" stroke="black" d="M98.62,-146.75C98.62,-139.37 98.62,-130.87 98.62,-122.75"/>
<polygon fill="black" stroke="black" points="102.13,-122.82 98.63,-112.82 95.13,-122.82 102.13,-122.82"/>
</g>
<!-- 16 -->
<g id="node17" class="node">
<title>16</title>
<polygon fill="lightyellow" stroke="black" points="156.62,-32.5 40.62,-32.5 40.62,0 156.62,0 156.62,-32.5"/>
<polygon fill="none" stroke="black" points="40.62,0 40.62,-32.5 107.62,-32.5 107.62,0 40.62,0"/>
<text xml:space="preserve" text-anchor="start" x="45.62" y="-19.25" font-family="Linux libertine" font-size="10.00">output&#45;tensor</text>
<text xml:space="preserve" text-anchor="start" x="58" y="-8" font-family="Linux libertine" font-size="10.00">depth:0</text>
<polygon fill="none" stroke="black" points="107.62,0 107.62,-32.5 156.62,-32.5 156.62,0 107.62,0"/>
<text xml:space="preserve" text-anchor="start" x="112.62" y="-13.62" font-family="Linux libertine" font-size="10.00">(1, 2, 96)</text>
</g>
<!-- 15&#45;&gt;16 -->
<g id="edge22" class="edge">
<title>15&#45;&gt;16</title>
<path fill="none" stroke="black" d="M98.62,-68.07C98.62,-60.62 98.62,-52.1 98.62,-44.2"/>
<polygon fill="black" stroke="black" points="102.13,-44.4 98.63,-34.4 95.13,-44.4 102.13,-44.4"/>
</g>
</g>
</svg>
